<svg xmlns="http://www.w3.org/2000/svg" xmlns:xlink="http://www.w3.org/1999/xlink" preserveAspectRatio="xMidYMid" width="20" height="20" viewBox="0 0 20 20">
  <defs>
    <style>
      .cls-1 {
        fill: #45b97c;
        fill-rule: evenodd;
      }
    </style>
  </defs>
  <path d="M2.259,1.148 C2.259,1.580 1.560,2.279 1.128,2.279 C0.695,2.279 -0.003,1.580 -0.003,1.148 C-0.003,0.696 0.695,0.017 1.128,0.017 C1.560,0.017 2.259,0.696 2.259,1.148 ZM1.148,20.003 C0.695,20.003 0.017,19.304 0.017,18.873 C0.017,18.440 0.695,17.741 1.148,17.741 C1.600,17.741 2.279,18.440 2.279,18.873 C2.279,19.304 1.600,20.003 1.148,20.003 ZM4.417,3.287 C4.417,3.739 3.718,4.417 3.286,4.417 C2.855,4.417 2.156,3.739 2.156,3.287 C2.156,2.855 2.855,2.155 3.286,2.155 C3.718,2.155 4.417,2.855 4.417,3.287 ZM3.307,17.844 C2.855,17.844 2.176,17.145 2.176,16.713 C2.176,16.282 2.855,15.583 3.307,15.583 C3.760,15.583 4.438,16.282 4.438,16.713 C4.438,17.145 3.760,17.844 3.307,17.844 ZM5.466,15.665 C5.014,15.665 4.335,14.966 4.335,14.534 C4.335,14.102 5.014,13.403 5.466,13.403 C5.918,13.403 6.597,14.102 6.597,14.534 C6.597,14.966 5.918,15.665 5.466,15.665 ZM6.577,5.466 C6.577,5.918 5.878,6.597 5.466,6.597 C5.055,6.597 4.356,5.918 4.356,5.466 C4.356,5.014 5.055,4.335 5.466,4.335 C5.878,4.335 6.577,5.014 6.577,5.466 ZM8.756,7.605 C8.756,8.057 8.057,8.756 7.625,8.756 C7.193,8.756 6.494,8.057 6.494,7.605 C6.494,7.173 7.193,6.474 7.625,6.474 C8.057,6.474 8.756,7.173 8.756,7.605 ZM7.625,13.506 C7.173,13.506 6.494,12.807 6.494,12.375 C6.494,11.943 7.173,11.244 7.625,11.244 C8.078,11.244 8.756,11.943 8.756,12.375 C8.756,12.807 8.078,13.506 7.625,13.506 ZM10.010,11.449 C9.414,11.449 8.530,10.545 8.530,9.990 C8.530,9.434 9.414,8.529 10.010,8.529 C10.606,8.529 11.491,9.434 11.491,9.990 C11.491,10.545 10.606,11.449 10.010,11.449 ZM12.395,8.756 C11.943,8.756 11.244,8.057 11.244,7.625 C11.244,7.193 11.943,6.494 12.395,6.494 C12.827,6.494 13.526,7.193 13.526,7.625 C13.526,8.057 12.827,8.756 12.395,8.756 ZM13.506,12.375 C13.506,12.827 12.807,13.506 12.375,13.506 C11.943,13.506 11.244,12.827 11.244,12.375 C11.244,11.922 11.943,11.244 12.375,11.244 C12.807,11.244 13.506,11.922 13.506,12.375 ZM14.534,6.556 C14.082,6.556 13.403,5.877 13.403,5.445 C13.403,5.014 14.082,4.335 14.534,4.335 C14.986,4.335 15.665,5.014 15.665,5.445 C15.665,5.877 14.986,6.556 14.534,6.556 ZM15.665,14.534 C15.665,14.986 14.986,15.665 14.555,15.665 C14.123,15.665 13.444,14.986 13.444,14.534 C13.444,14.082 14.123,13.403 14.555,13.403 C14.986,13.403 15.665,14.082 15.665,14.534 ZM16.713,4.417 C16.261,4.417 15.583,3.718 15.583,3.287 C15.583,2.855 16.261,2.155 16.713,2.155 C17.146,2.155 17.845,2.855 17.845,3.287 C17.845,3.718 17.146,4.417 16.713,4.417 ZM17.845,16.693 C17.845,17.145 17.146,17.823 16.713,17.823 C16.282,17.823 15.583,17.145 15.583,16.693 C15.583,16.261 16.282,15.562 16.713,15.562 C17.146,15.562 17.845,16.261 17.845,16.693 ZM18.852,2.258 C18.420,2.258 17.721,1.559 17.721,1.127 C17.721,0.696 18.420,-0.003 18.852,-0.003 C19.304,-0.003 19.983,0.696 19.983,1.127 C19.983,1.559 19.304,2.258 18.852,2.258 ZM20.003,18.852 C20.003,19.304 19.304,19.983 18.873,19.983 C18.441,19.983 17.742,19.304 17.742,18.852 C17.742,18.400 18.441,17.721 18.873,17.721 C19.304,17.721 20.003,18.400 20.003,18.852 Z" class="cls-1"/>
</svg>
