<svg xmlns="http://www.w3.org/2000/svg" width="45px" height="29px"
						 viewBox="0 0 45 29" enable-background="new 0 0 45 29" xml:space="preserve">
	<g class="svg-menu-toggle">
		<path class="bar" fill-rule="evenodd" clip-rule="evenodd" d="M39.5,3h-34C4.1,3,3,4.1,3,5.5C3,6.9,4.1,8,5.5,8h34
			C40.9,8,42,6.9,42,5.5C42,4.1,40.9,3,39.5,3z"/>
		<path class="bar" fill-rule="evenodd" clip-rule="evenodd" d="M39.5,12h-34C4.1,12,3,13.1,3,14.5C3,15.9,4.1,17,5.5,17h34
			c1.4,0,2.5-1.1,2.5-2.5C42,13.1,40.9,12,39.5,12z"/>
		<path class="bar" fill-rule="evenodd" clip-rule="evenodd" d="M39.5,21h-34C4.1,21,3,22.1,3,23.5C3,24.9,4.1,26,5.5,26h34
			c1.4,0,2.5-1.1,2.5-2.5C42,22.1,40.9,21,39.5,21z"/>
	</g>
</svg>