<?xml version="1.0" encoding="utf-8"?>
<!-- Generator: Adobe Illustrator 19.0.0, SVG Export Plug-In . SVG Version: 6.00 Build 0)  -->
<svg version="1.1" id="Layer_1" xmlns="http://www.w3.org/2000/svg" xmlns:xlink="http://www.w3.org/1999/xlink" x="0px" y="0px"
	 viewBox="0 0 67.8 67.8" enable-background="new 0 0 67.8 67.8" xml:space="preserve">
<g>
	<circle fill="#FAAF41" cx="33.9" cy="33.9" r="33.9"/>
	<g>
		<path fill="#FFFFFF" d="M55.2,30.4c0-2.1-1.7-3.9-3.9-3.9H37.1c0.7-3.3,2-10.3,0.4-13c-2.2-3.8-5.1-2.3-5.1-2.3l-1,7
			c0,0-2.6,7.7-5.6,9.2c-3,1.5-5.8,4.3-5.8,4.3v18.1c0,0,9.1,4.8,27.2,4.8c1.7,0,3.1-1.4,3.1-3.1c0-1.1-0.6-2.1-1.5-2.7
			c2-0.2,3.6-1.8,3.6-3.9c0-1.5-0.8-2.8-2.1-3.4c1.9-0.3,3.3-1.9,3.3-3.8c0-1.5-0.8-2.7-2-3.4C53.7,34.1,55.2,32.5,55.2,30.4z"/>
		<path fill="#FFFFFF" d="M12.5,50.5c0,0.6,0.5,1.1,1.1,1.1h3.7c0.6,0,1.1-0.5,1.1-1.1V31.7c0-0.6-0.5-1.1-1.1-1.1h-3.7
			c-0.6,0-1.1,0.5-1.1,1.1V50.5z"/>
	</g>
</g>
</svg>
