<?xml version="1.0" encoding="utf-8"?><svg xmlns="http://www.w3.org/2000/svg" xmlns:xlink="http://www.w3.org/1999/xlink"><symbol preserveAspectRatio="xMidYMid" viewBox="0 0 5 14" id="arrow-down"><path d="M2.939.006v10.105c.812-.535 1.342-.801 2.064-.829-1.245 1.217-1.893 2.799-2.503 4.711-.583-1.912-1.296-3.424-2.503-4.711.785.082 1.259.304 2.122.846V.006h.82z" class="acls-1"/></symbol><symbol viewBox="0 0 67.8 67.8" id="like"><circle fill="#FAAF41" cx="33.9" cy="33.9" r="33.9"/><path d="M55.2 30.4c0-2.1-1.7-3.9-3.9-3.9H37.1c.7-3.3 2-10.3.4-13-2.2-3.8-5.1-2.3-5.1-2.3l-1 7s-2.6 7.7-5.6 9.2c-3 1.5-5.8 4.3-5.8 4.3v18.1s9.1 4.8 27.2 4.8c1.7 0 3.1-1.4 3.1-3.1 0-1.1-.6-2.1-1.5-2.7 2-.2 3.6-1.8 3.6-3.9 0-1.5-.8-2.8-2.1-3.4 1.9-.3 3.3-1.9 3.3-3.8 0-1.5-.8-2.7-2-3.4 2.1-.2 3.6-1.8 3.6-3.9zM12.5 50.5c0 .6.5 1.1 1.1 1.1h3.7c.6 0 1.1-.5 1.1-1.1V31.7c0-.6-.5-1.1-1.1-1.1h-3.7c-.6 0-1.1.5-1.1 1.1v18.8z" fill="#FFF"/></symbol><symbol preserveAspectRatio="xMidYMid" viewBox="0 0 19 18" id="star"><defs><style>.ccls-1{fill:#6e6e6e;fill-rule:evenodd}</style></defs><path d="M9.5 0l3.131 5.656 6.368 1.219-4.433 4.715.804 6.409-5.87-2.743-5.871 2.743.805-6.409L.001 6.875l6.368-1.219L9.5 0" class="ccls-1"/></symbol></svg>