<?xml version="1.0" encoding="utf-8"?><svg xmlns="http://www.w3.org/2000/svg" xmlns:xlink="http://www.w3.org/1999/xlink"><symbol preserveAspectRatio="xMidYMid" viewBox="0 0 5 14" id="arrow-down"><path d="M2.939.006v10.105c.812-.535 1.342-.801 2.064-.829-1.245 1.217-1.893 2.799-2.503 4.711-.583-1.912-1.296-3.424-2.503-4.711.785.082 1.259.304 2.122.846V.006h.82z" class="acls-1"/></symbol><symbol preserveAspectRatio="xMidYMid" viewBox="0 0 20 20" id="close"><defs><style>.bcls-1{fill:#45b97c;fill-rule:evenodd}</style></defs><path d="M2.259 1.148c0 .432-.699 1.131-1.131 1.131-.433 0-1.131-.699-1.131-1.131C-.003.696.695.017 1.128.017c.432 0 1.131.679 1.131 1.131zM1.148 20.003c-.453 0-1.131-.699-1.131-1.13 0-.433.678-1.132 1.131-1.132.452 0 1.131.699 1.131 1.132 0 .431-.679 1.13-1.131 1.13zM4.417 3.287c0 .452-.699 1.13-1.131 1.13-.431 0-1.13-.678-1.13-1.13 0-.432.699-1.132 1.13-1.132.432 0 1.131.7 1.131 1.132zm-1.11 14.557c-.452 0-1.131-.699-1.131-1.131 0-.431.679-1.13 1.131-1.13.453 0 1.131.699 1.131 1.13 0 .432-.678 1.131-1.131 1.131zm2.159-2.179c-.452 0-1.131-.699-1.131-1.131 0-.432.679-1.131 1.131-1.131.452 0 1.131.699 1.131 1.131 0 .432-.679 1.131-1.131 1.131zM6.577 5.466c0 .452-.699 1.131-1.111 1.131-.411 0-1.11-.679-1.11-1.131 0-.452.699-1.131 1.11-1.131.412 0 1.111.679 1.111 1.131zm2.179 2.139c0 .452-.699 1.151-1.131 1.151-.432 0-1.131-.699-1.131-1.151 0-.432.699-1.131 1.131-1.131.432 0 1.131.699 1.131 1.131zm-1.131 5.901c-.452 0-1.131-.699-1.131-1.131 0-.432.679-1.131 1.131-1.131.453 0 1.131.699 1.131 1.131 0 .432-.678 1.131-1.131 1.131zm2.385-2.057c-.596 0-1.48-.904-1.48-1.459 0-.556.884-1.461 1.48-1.461s1.481.905 1.481 1.461c0 .555-.885 1.459-1.481 1.459zm2.385-2.693c-.452 0-1.151-.699-1.151-1.131 0-.432.699-1.131 1.151-1.131.432 0 1.131.699 1.131 1.131 0 .432-.699 1.131-1.131 1.131zm1.111 3.619c0 .452-.699 1.131-1.131 1.131-.432 0-1.131-.679-1.131-1.131 0-.453.699-1.131 1.131-1.131.432 0 1.131.678 1.131 1.131zm1.028-5.819c-.452 0-1.131-.679-1.131-1.111 0-.431.679-1.11 1.131-1.11.452 0 1.131.679 1.131 1.11 0 .432-.679 1.111-1.131 1.111zm1.131 7.978c0 .452-.679 1.131-1.11 1.131-.432 0-1.111-.679-1.111-1.131 0-.452.679-1.131 1.111-1.131.431 0 1.11.679 1.11 1.131zm1.048-10.117c-.452 0-1.13-.699-1.13-1.13 0-.432.678-1.132 1.13-1.132.433 0 1.132.7 1.132 1.132 0 .431-.699 1.13-1.132 1.13zm1.132 12.276c0 .452-.699 1.13-1.132 1.13-.431 0-1.13-.678-1.13-1.13 0-.432.699-1.131 1.13-1.131.433 0 1.132.699 1.132 1.131zm1.007-14.435c-.432 0-1.131-.699-1.131-1.131 0-.431.699-1.13 1.131-1.13.452 0 1.131.699 1.131 1.13 0 .432-.679 1.131-1.131 1.131zm1.151 16.594c0 .452-.699 1.131-1.13 1.131-.432 0-1.131-.679-1.131-1.131 0-.452.699-1.131 1.131-1.131.431 0 1.13.679 1.13 1.131z" class="bcls-1"/></symbol><symbol viewBox="0 0 24 24" id="corner"><path fill="#FBB040" d="M0 0l24 12L0 24z"/></symbol><symbol viewBox="0 0 67.8 67.8" id="like"><circle fill="#FAAF41" cx="33.9" cy="33.9" r="33.9"/><path d="M55.2 30.4c0-2.1-1.7-3.9-3.9-3.9H37.1c.7-3.3 2-10.3.4-13-2.2-3.8-5.1-2.3-5.1-2.3l-1 7s-2.6 7.7-5.6 9.2c-3 1.5-5.8 4.3-5.8 4.3v18.1s9.1 4.8 27.2 4.8c1.7 0 3.1-1.4 3.1-3.1 0-1.1-.6-2.1-1.5-2.7 2-.2 3.6-1.8 3.6-3.9 0-1.5-.8-2.8-2.1-3.4 1.9-.3 3.3-1.9 3.3-3.8 0-1.5-.8-2.7-2-3.4 2.1-.2 3.6-1.8 3.6-3.9zM12.5 50.5c0 .6.5 1.1 1.1 1.1h3.7c.6 0 1.1-.5 1.1-1.1V31.7c0-.6-.5-1.1-1.1-1.1h-3.7c-.6 0-1.1.5-1.1 1.1v18.8z" fill="#FFF"/></symbol><symbol preserveAspectRatio="xMidYMid" viewBox="0 0 19 18" id="star"><defs><style>.ecls-1{fill:#6e6e6e;fill-rule:evenodd}</style></defs><path d="M9.5 0l3.131 5.656 6.368 1.219-4.433 4.715.804 6.409-5.87-2.743-5.871 2.743.805-6.409L.001 6.875l6.368-1.219L9.5 0" class="ecls-1"/></symbol></svg>